<?xml version="1.0" standalone="no"?>
<!DOCTYPE svg PUBLIC "-//W3C//DTD SVG 20010904//EN"
 "http://www.w3.org/TR/2001/REC-SVG-20010904/DTD/svg10.dtd">
<svg version="1.0" xmlns="http://www.w3.org/2000/svg"
 width="16.000000pt" height="16.000000pt" viewBox="0 0 16.000000 16.000000"
 preserveAspectRatio="xMidYMid meet">
<metadata>
Created by potrace 1.11, written by Peter Selinger 2001-2013
</metadata>
<g transform="translate(0.000000,16.000000) scale(0.008511,-0.008511)"
fill="#000000" stroke="none">
<path d="M50 1715 c0 -6 13 -31 28 -56 16 -25 31 -49 33 -54 4 -10 82 -147 99
-175 33 -53 90 -151 90 -154 0 -4 107 -190 130 -226 5 -8 24 -42 43 -75 127
-224 479 -830 487 -838 4 -4 54 74 112 175 58 101 181 314 273 473 92 160 217
376 277 480 60 105 114 197 119 205 51 83 138 243 135 249 -2 3 -91 6 -198 6
l-193 0 -86 -150 c-48 -83 -163 -282 -256 -444 -93 -161 -173 -294 -179 -294
-7 0 -248 402 -307 514 l-14 26 229 0 c126 0 230 2 232 4 8 10 136 230 136
234 0 2 14 26 30 52 17 26 30 49 30 52 0 4 -281 6 -625 6 -435 0 -625 -3 -625
-10z"/>
</g>
</svg>
